<svg width="8" height="8" viewBox="0 0 8 8" fill="none" xmlns="http://www.w3.org/2000/svg">
<path fill-rule="evenodd" clip-rule="evenodd" d="M1.74954 4.29036C1.69661 4.24948 1.63102 4.22847 1.56419 4.23097C1.49737 4.23348 1.43354 4.25935 1.38382 4.30407C0.886679 4.75093 0.317536 5.39493 0.0203931 6.13836C0.00558118 6.17543 -0.00129722 6.21519 0.000201391 6.25509C0.00170001 6.29498 0.0115424 6.33412 0.0290939 6.36998C0.0466454 6.40583 0.0715165 6.43761 0.102104 6.46327C0.132691 6.48892 0.168315 6.50788 0.206679 6.51893L1.06211 6.76521L1.69296 7.85779C1.72164 7.90742 1.76458 7.94729 1.8162 7.9722C1.86783 7.99711 1.92575 8.00592 1.98245 7.99747C2.03915 7.98903 2.092 7.96373 2.13412 7.92486C2.17625 7.88598 2.20571 7.83534 2.21868 7.7795C2.40154 6.99493 2.75468 6.3035 3.19582 5.78179C3.22084 5.75227 3.23961 5.71799 3.25098 5.681C3.26235 5.64402 3.26609 5.60511 3.26198 5.56664C3.25786 5.52817 3.24598 5.49094 3.22704 5.4572C3.20811 5.42345 3.18252 5.39391 3.15182 5.37036L1.74954 4.29036ZM6.61811 4.30693C6.56846 4.26212 6.50466 4.23615 6.43784 4.23354C6.37101 4.23093 6.30539 4.25185 6.25239 4.29264L4.84954 5.37264C4.81897 5.39615 4.79348 5.4256 4.7746 5.45922C4.75571 5.49284 4.74383 5.52994 4.73967 5.56827C4.7355 5.60661 4.73914 5.64539 4.75036 5.68228C4.76159 5.71917 4.78016 5.75341 4.80497 5.78293C5.24611 6.30464 5.59868 6.99607 5.78154 7.7795C5.7945 7.83534 5.82396 7.88598 5.86609 7.92486C5.90822 7.96373 5.96107 7.98903 6.01776 7.99747C6.07446 8.00592 6.13239 7.99711 6.18401 7.9722C6.23564 7.94729 6.27858 7.90742 6.30725 7.85779L6.93754 6.76521L7.79354 6.5195C7.83192 6.5084 7.86755 6.48938 7.89812 6.46366C7.9287 6.43794 7.95354 6.40609 7.97104 6.37017C7.98854 6.33425 7.99832 6.29507 7.99973 6.25514C8.00114 6.21521 7.99417 6.17542 7.97925 6.13836C7.68211 5.39607 7.11525 4.75321 6.61811 4.30693Z" fill="#C5282B"/>
<path fill-rule="evenodd" clip-rule="evenodd" d="M3.9976 2.21122e-05C3.12217 2.21122e-05 2.39817 0.246308 1.8936 0.751451C1.38846 1.25717 1.1416 1.98117 1.1416 2.85659C1.1416 3.73202 1.38846 4.45659 1.8936 4.96174C2.39817 5.46688 3.12217 5.71374 3.9976 5.71374C4.87246 5.71374 5.59646 5.46688 6.10103 4.96174C6.60617 4.45659 6.85303 3.73202 6.85303 2.85659C6.85303 1.98117 6.60617 1.25659 6.10103 0.752022C5.59646 0.246879 4.87246 -0.000549316 3.99817 -0.000549316L3.9976 2.21122e-05Z" fill="#FFCD29"/>
<path d="M3.68082 1.73886C3.80653 1.39886 4.27168 1.38857 4.39111 1.73029C4.43739 1.86229 4.47739 2.00457 4.51796 2.17486C4.69796 2.17314 4.84996 2.17543 4.99511 2.18343C5.35853 2.20286 5.50368 2.644 5.20996 2.85886C5.1414 2.9086 5.07147 2.95643 5.00025 3.00229C4.95654 3.03066 4.92325 3.0725 4.90541 3.12146C4.88758 3.17043 4.88617 3.22388 4.90139 3.27372C4.94539 3.41486 4.98082 3.54229 5.00996 3.66686C5.09282 4.01543 4.71968 4.28572 4.43053 4.07257C4.28899 3.96691 4.1546 3.852 4.02825 3.72857C3.90275 3.84601 3.77073 3.95629 3.63282 4.05886C3.34139 4.27257 2.95968 4.00514 3.04425 3.65429C3.07282 3.53429 3.10825 3.41257 3.15168 3.276C3.16765 3.22583 3.16668 3.1718 3.14892 3.12224C3.13116 3.07267 3.09759 3.03032 3.05339 3.00172C2.97682 2.95235 2.90174 2.90071 2.82825 2.84686C2.53853 2.63372 2.67968 2.19772 3.03911 2.17943C3.18882 2.17143 3.34768 2.17086 3.53853 2.17486C3.58711 2.00914 3.63225 1.86972 3.68082 1.73886Z" fill="#DEAA00"/>
</svg>
